<?xml version="1.0" standalone="no"?><!DOCTYPE svg PUBLIC "-//W3C//DTD SVG 1.1//EN" "http://www.w3.org/Graphics/SVG/1.1/DTD/svg11.dtd">
<svg t="1588575456405" class="icon" viewBox="0 0 1024 1024" version="1.1" 
    xmlns="http://www.w3.org/2000/svg" p-id="8471" width="32" height="32" 
    xmlns:xlink="http://www.w3.org/1999/xlink">
    <defs>
        <style type="text/css"></style>
    </defs>
    <path d="M517.1 125.4c53.7 0 105.9 10.5 154.9 31.3 47.4 20 90 48.7 126.5 85.3 36.6 36.6 65.3 79.1 85.3 126.5 20.7 49 31.3 101.2 31.3 154.9 0 53.8-10.5 105.9-31.3 154.9-20 47.4-48.7 90-85.3 126.5-36.6 36.6-79.1 65.3-126.5 85.3-49 20.7-101.2 31.3-154.9 31.3s-105.9-10.5-154.9-31.3c-47.4-20-90-48.7-126.5-85.3-36.6-36.6-65.3-79.1-85.3-126.5-20.7-49-31.3-101.2-31.3-154.9s10.5-105.9 31.3-154.9c20-47.4 48.7-90 85.3-126.5 36.6-36.6 79.1-65.3 126.5-85.3 49.1-20.8 101.2-31.3 154.9-31.3m0-50c-247.4 0-448 200.6-448 448s200.6 448 448 448 448-200.6 448-448-200.6-448-448-448z" p-id="8472" fill="#515151"></path>
    <path d="M436.2 351.5l268.3 171.7-268.3 171.7V351.5M410.3 282c-13.2 0-24.1 9.4-24.1 33.2v416c0 23.6 11.7 33.6 24.9 33.6 5.7 0 11.7-1.9 17.1-5.4l330.1-211.2c19-13.2 18.5-37.8 0-49.9L428.2 287c-6-3.2-12.2-5-17.9-5z" p-id="8473" fill="#515151"></path>
</svg>